<svg xmlns="http://www.w3.org/2000/svg" width="110" height="110" viewBox="0 0 110 110">
    <g>
        <g>
            <path d="M5638.814 1098.748a1.109 1.109 0 0 1-1.109-1.108v-11.488a1.109 1.109 0 1 1 2.217 0v11.488a1.109 1.109 0 0 1-1.108 1.108z" transform="translate(-5491.511 -1085.043) translate(5545.403 1085.043) translate(-5637.705 -1085.043)"/>
        </g>
        <g>
            <path d="M5587.265 1109a1.11 1.11 0 0 1-1.025-.685l-4.4-10.613a1.108 1.108 0 1 1 2.048-.848l4.4 10.613a1.109 1.109 0 0 1-1.023 1.533z" transform="translate(-5491.511 -1085.043) translate(5524.774 1089.159) translate(-5581.759 -1096.17)"/>
        </g>
        <g>
            <path d="M5543.563 1138.2a1.108 1.108 0 0 1-.784-.325l-8.122-8.123a1.108 1.108 0 0 1 1.567-1.567l8.123 8.123a1.109 1.109 0 0 1-.784 1.893z" transform="translate(-5491.511 -1085.043) translate(5507.352 1100.883) translate(-5534.331 -1127.862)"/>
        </g>
        <g>
            <path d="M5514.361 1181.9a1.109 1.109 0 0 1-.424-.084l-10.613-4.4a1.108 1.108 0 1 1 .848-2.048l10.613 4.4a1.109 1.109 0 0 1-.425 2.133z" transform="translate(-5491.511 -1085.043) translate(5495.628 1118.306) translate(-5502.639 -1175.29)"/>
        </g>
        <g>
            <path d="M5504.107 1233.454h-11.487a1.109 1.109 0 0 1 0-2.217h11.488a1.109 1.109 0 0 1 0 2.217z" transform="translate(-5491.511 -1085.043) translate(5491.511 1138.935) translate(-5491.511 -1231.237)"/>
        </g>
        <g>
            <path d="M5503.749 1281.912a1.109 1.109 0 0 1-.424-2.133l10.613-4.4a1.109 1.109 0 0 1 .849 2.048l-10.613 4.4a1.1 1.1 0 0 1-.425.085z" transform="translate(-5491.511 -1085.043) translate(5495.628 1155.167) translate(-5502.639 -1275.297)"/>
        </g>
        <g>
            <path d="M5535.439 1322.994a1.109 1.109 0 0 1-.783-1.892l8.122-8.123a1.108 1.108 0 0 1 1.568 1.567l-8.123 8.123a1.106 1.106 0 0 1-.784.325z" transform="translate(-5491.511 -1085.043) translate(5507.352 1168.863) translate(-5534.331 -1312.654)"/>
        </g>
        <g>
            <path d="M5582.867 1350.443a1.108 1.108 0 0 1-1.023-1.533l4.4-10.613a1.109 1.109 0 0 1 2.049.848l-4.4 10.613a1.109 1.109 0 0 1-1.026.685z" transform="translate(-5491.511 -1085.043) translate(5524.774 1178.096) translate(-5581.759 -1337.613)"/>
        </g>
        <g>
            <path d="M5638.814 1360.082a1.109 1.109 0 0 1-1.109-1.108v-11.488a1.109 1.109 0 1 1 2.217 0v11.488a1.108 1.108 0 0 1-1.108 1.108z" transform="translate(-5491.511 -1085.043) translate(5545.403 1181.339) translate(-5637.705 -1346.377)"/>
        </g>
        <g>
            <path d="M5687.272 1350.443a1.108 1.108 0 0 1-1.024-.684l-4.4-10.613a1.109 1.109 0 0 1 2.049-.848l4.4 10.613a1.108 1.108 0 0 1-1.023 1.533z" transform="translate(-5491.511 -1085.043) translate(5561.635 1178.096) translate(-5681.767 -1337.612)"/>
        </g>
        <g>
            <path d="M5728.354 1322.994a1.106 1.106 0 0 1-.784-.325l-8.123-8.123a1.108 1.108 0 1 1 1.567-1.567l8.124 8.123a1.109 1.109 0 0 1-.784 1.892z" transform="translate(-5491.511 -1085.043) translate(5575.332 1168.863) translate(-5719.122 -1312.654)"/>
        </g>
        <g>
            <path d="M5755.8 1281.912a1.1 1.1 0 0 1-.424-.085l-10.613-4.4a1.109 1.109 0 0 1 .849-2.048l10.613 4.4a1.109 1.109 0 0 1-.424 2.133z" transform="translate(-5491.511 -1085.043) translate(5584.565 1155.167) translate(-5744.081 -1275.298)"/>
        </g>
        <g>
            <path d="M5765.442 1233.454h-11.487a1.109 1.109 0 0 1 0-2.217h11.487a1.109 1.109 0 0 1 0 2.217z" transform="translate(-5491.511 -1085.043) translate(5587.807 1138.935) translate(-5752.847 -1231.237)"/>
        </g>
        <g>
            <path d="M5745.19 1181.9a1.109 1.109 0 0 1-.425-2.133l10.613-4.4a1.108 1.108 0 1 1 .848 2.048l-10.613 4.4a1.106 1.106 0 0 1-.423.085z" transform="translate(-5491.511 -1085.043) translate(5584.565 1118.306) translate(-5744.081 -1175.29)"/>
        </g>
        <g>
            <path d="M5720.231 1138.2a1.109 1.109 0 0 1-.784-1.893l8.123-8.123a1.108 1.108 0 0 1 1.568 1.567l-8.124 8.123a1.1 1.1 0 0 1-.783.326z" transform="translate(-5491.511 -1085.043) translate(5575.332 1100.883) translate(-5719.122 -1127.862)"/>
        </g>
        <g>
            <path d="M5682.875 1109a1.11 1.11 0 0 1-1.024-1.533l4.4-10.613a1.108 1.108 0 1 1 2.048.848l-4.4 10.614a1.109 1.109 0 0 1-1.024.684z" transform="translate(-5491.511 -1085.043) translate(5561.635 1089.159) translate(-5681.767 -1096.17)"/>
        </g>
    </g>
</svg>
