<svg xmlns="http://www.w3.org/2000/svg" width="110" height="110" viewBox="0 0 110 110">
    <g>
        <path d="M4508.032 1205.245a54.926 54.926 0 0 1-8.959-1.481l.532-2.118a52.761 52.761 0 0 0 8.6 1.422zm9.079-.006l-.179-2.177a52.766 52.766 0 0 0 8.6-1.433l.535 2.118a54.958 54.958 0 0 1-8.956 1.493zm-26.637-4.424a54.984 54.984 0 0 1-7.989-4.332l1.193-1.828a52.8 52.8 0 0 0 7.672 4.16zm44.184-.025l-.877-2a52.894 52.894 0 0 0 7.662-4.165l1.194 1.827a54.977 54.977 0 0 1-7.979 4.339zm-59.341-9.895a55.547 55.547 0 0 1-6.157-6.686l1.719-1.344a53.41 53.41 0 0 0 5.914 6.422zm74.48-.035l-1.478-1.606a53.286 53.286 0 0 0 5.909-6.429l1.72 1.343a55.51 55.51 0 0 1-6.148 6.693zm-85.616-14.256a54.939 54.939 0 0 1-3.658-8.321l2.062-.711a52.727 52.727 0 0 0 3.512 7.989zm96.741-.05l-1.917-1.041a52.935 52.935 0 0 0 3.507-8l2.063.708a55.042 55.042 0 0 1-3.653 8.334zm-102.632-17.089a55.806 55.806 0 0 1-.752-9.064h2.181a53.514 53.514 0 0 0 .722 8.707zm108.507-.066l-2.151-.357a53.5 53.5 0 0 0 .711-8.707v-.129h2.18v.123a55.812 55.812 0 0 1-.737 9.071zm-106.377-17.709l-2.151-.354a54.954 54.954 0 0 1 2.211-8.823l2.064.706a52.775 52.775 0 0 0-2.124 8.472zm104.2-.187a52.624 52.624 0 0 0-2.154-8.463l2.061-.714a54.932 54.932 0 0 1 2.244 8.815zm-98.583-16.29l-1.918-1.039a55.321 55.321 0 0 1 4.964-7.62l1.722 1.34a53.158 53.158 0 0 0-4.763 7.32zm92.908-.159a53.116 53.116 0 0 0-4.791-7.3l1.718-1.346a55.351 55.351 0 0 1 4.987 7.6zm-82.239-13.594l-1.48-1.6a55.445 55.445 0 0 1 7.154-5.6l1.2 1.826a53.162 53.162 0 0 0-6.87 5.375zm71.527-.119a53.14 53.14 0 0 0-6.892-5.359l1.191-1.83a55.342 55.342 0 0 1 7.174 5.579zm-57-9.436l-.88-2a54.629 54.629 0 0 1 8.586-2.967l.537 2.117a52.486 52.486 0 0 0-8.237 2.851zm42.43-.074a52.5 52.5 0 0 0-8.258-2.821l.53-2.119a54.7 54.7 0 0 1 8.6 2.939zm-25.586-4.218l-.182-2.177a56.015 56.015 0 0 1 9.079-.016l-.174 2.177a53.863 53.863 0 0 0-8.717.018z" transform="translate(-4457.538 -1095.245) translate(0 0)"/>
    </g>
</svg>
