<svg xmlns="http://www.w3.org/2000/svg" width="110" height="110" viewBox="0 0 110 110">
    <g>
        <g>
            <path d="M5094.729 1226.034a20.415 20.415 0 1 1 20.415-20.415 20.438 20.438 0 0 1-20.415 20.415zm0-39.315a18.9 18.9 0 1 0 18.9 18.9 18.921 18.921 0 0 0-18.9-18.9z" transform="translate(-4973.642 -1084.534) translate(5008.228 1119.119) translate(-5074.314 -1185.204)"/>
        </g>
        <g>
            <path d="M5117.515 1236.76a8.355 8.355 0 1 1 8.354-8.355 8.365 8.365 0 0 1-8.354 8.355zm0-15.2a6.84 6.84 0 1 0 6.84 6.84 6.848 6.848 0 0 0-6.84-6.835z" transform="translate(-4973.642 -1084.534) translate(5020.287 1131.179) translate(-5109.159 -1220.05)"/>
        </g>
        <g>
            <path d="M5072.857 1215.739a31.99 31.99 0 1 1 31.99-31.991 32.027 32.027 0 0 1-31.99 31.991zm0-62.466a30.476 30.476 0 1 0 30.475 30.475 30.51 30.51 0 0 0-30.475-30.475z" transform="translate(-4973.642 -1084.534) translate(4996.652 1107.544) translate(-5040.867 -1151.758)"/>
        </g>
        <g>
            <path d="M5050.092 1204.63a43.648 43.648 0 1 1 43.648-43.648 43.7 43.7 0 0 1-43.648 43.648zm0-85.789a42.142 42.142 0 1 0 42.142 42.142 42.189 42.189 0 0 0-42.142-42.142z" transform="translate(-4973.642 -1084.534) translate(4984.995 1095.886) translate(-5006.444 -1117.335)"/>
        </g>
        <g>
            <path d="M5028.643 1194.534a55 55 0 1 1 55-55 55.062 55.062 0 0 1-55 55zm0-108.492a53.492 53.492 0 1 0 53.492 53.492 53.553 53.553 0 0 0-53.492-53.492z" transform="translate(-4973.642 -1084.534) translate(4973.642 1084.534) translate(-4973.642 -1084.534)"/>
        </g>
    </g>
</svg>
